<!-- Generator: Adobe Illustrator 16.0.0, SVG Export Plug-In . SVG Version: 6.00 Build 0)  -->
<!DOCTYPE svg PUBLIC "-//W3C//DTD SVG 1.1//EN" "http://www.w3.org/Graphics/SVG/1.1/DTD/svg11.dtd">
<svg version="1.1" id="Ebene_1" xmlns="http://www.w3.org/2000/svg" xmlns:xlink="http://www.w3.org/1999/xlink" x="0px" y="0px"
	 width="348.554px" height="105.475px" viewBox="-1.546 156.529 348.554 105.475"
	 enable-background="new -1.546 156.529 348.554 105.475" xml:space="preserve" class="astroid-logo-default" width="250px" height="250px">
<g id="Logo_2_">
	<g>
		<g>
			<path fill="#007AC3" d="M20.571,212.743l10.239-11.115l-10.236-0.004L20.571,212.743z M64.791,218.024
				c-2.927-1.605-5.083-3.512-6.386-5.883c-4.438-10.863,0.207-19.764,10.171-23.125l0.006-19.718l-47.998-0.016l-0.006,18.936
				l33.179,0.01l-0.003,12.054l-16.703,17.734L64.791,218.024z M54.518,226.722l16.339-1.543c1.711,8.389,6.54,11.26,13.208,9.721
				c6.795-1.76,5.385-9.26-1.156-11.086c-4.292-0.926-8.116-1.883-11.426-2.979v0.107l-37.177-0.01l-11.481,12.191l31.692,0.01
				l-0.005,13.033L1.44,246.151l0.005-12.648l16.208-17.594l0.005-14.285l-16.396-0.006l0.005-13.405l16.396,0.006l0.006-21.852
				l53.832,0.016l-0.008,21.846c10.816-1.701,19.549-0.209,26.2,4.478c3.21,1.947,5.346,6.1,6.408,12.457l-17.111,0.961
				c-1.198-6.645-6.764-9.213-12.629-6.223c-2.016,1.027-2.658,4.807,1.351,6.412l16.337,4.484
				c18.848,5.049,18.453,32.277-5.265,36.152C66.867,249.464,56.498,242.72,54.518,226.722z"/>
		</g>
		<g>
			<path fill-rule="evenodd" clip-rule="evenodd" fill="#007AC3" d="M124.83,222.642l10.51,0.004
				c6.475-0.256,7.113,9.006-0.002,9.996l-10.511-0.004L124.83,222.642z M124.965,201.073l8.492,0.002
				c6.475-0.254,7.112,9.008-0.003,9.998l-8.492-0.004L124.965,201.073z M106.829,188.246l33.663,0.01
				c15.935-0.961,22.317,22.565,6.962,26.827c18.27,5.84,15.345,32.084-11.095,31.109l-29.742-0.01L106.829,188.246z"/>
		</g>
	</g>
	<g display="none">
		
			<rect x="-2.63" y="162.979" display="inline" fill-rule="evenodd" clip-rule="evenodd" fill="#007AC3" width="164.74" height="85.952"/>
	</g>
</g>
<g>
	<path fill="#0055A2" d="M20.561,212.745L30.8,201.636l-10.235-0.003L20.561,212.745z M64.764,218.025
		c-2.925-1.605-5.08-3.513-6.384-5.883c-4.436-10.857,0.207-19.755,10.167-23.113l0.005-19.706l-47.977-0.018l-0.006,18.928
		l33.166,0.01l-0.006,12.046l-16.694,17.727L64.764,218.025z M54.496,226.72l16.331-1.54c1.71,8.381,6.538,11.253,13.202,9.712
		c6.79-1.757,5.384-9.253-1.155-11.078c-4.29-0.929-8.112-1.884-11.42-2.979v0.108l-37.162-0.014l-11.475,12.188l31.676,0.014
		l-0.004,13.027l-53.047-0.015l0.002-12.644l16.203-17.587l0.004-14.279l-16.388-0.007l0.004-13.4l16.39,0.008l0.006-21.844
		l53.81,0.021l-0.006,21.833c10.807-1.702,19.54-0.211,26.186,4.476c3.211,1.947,5.345,6.096,6.404,12.449l-17.102,0.963
		c-1.199-6.642-6.763-9.208-12.624-6.223c-2.014,1.029-2.658,4.808,1.35,6.413l16.331,4.483c18.837,5.043,18.444,32.26-5.264,36.137
		C66.839,249.451,56.475,242.711,54.496,226.72z"/>
	<path fill-rule="evenodd" clip-rule="evenodd" fill="#0055A2" d="M124.779,222.639l10.504,0.004
		c6.471-0.251,7.109,9.005-0.002,9.991h-10.506L124.779,222.639z M124.912,201.081l8.488,0.004c6.471-0.256,7.108,9.005-0.002,9.99
		l-8.49-0.002L124.912,201.081z M106.783,188.259l33.65,0.01c15.926-0.959,22.306,22.556,6.958,26.818
		c18.263,5.836,15.34,32.067-11.092,31.094l-29.728-0.007L106.783,188.259z"/>
</g>
<g>
	<g>
		<path fill="#838382" d="M179.611,200.474l-6.179,14.688h5.69v3.388h-10.866l6.016-14.688h-5.258v-3.388H179.611z"/>
		<path fill="#838382" d="M184.272,200.474l1.463,7.913c0.244,1.382,0.298,1.815,0.406,3.93c0.027,0.135,0.027,0.352,0.055,0.623
			c0.271-2.331,0.298-2.602,0.678-4.336l1.68-8.13h2.818l1.843,9.078c0.298,1.437,0.38,2.087,0.487,3.388
			c0.027-1.003,0.027-1.192,0.136-2.467c0.136-1.518,0.136-1.436,0.38-2.791l1.301-7.208h3.713l-3.713,18.075h-3.117l-1.625-6.91
			c-0.543-2.331-0.569-2.574-0.76-5.936c-0.162,1.951-0.46,3.686-0.948,5.746l-1.68,7.1h-3.116l-3.659-18.075H184.272z"/>
		<path fill="#838382" d="M204.732,200.474v18.075h-3.577v-18.075H204.732z"/>
		<path fill="#838382" d="M217.198,203.888c-0.597-0.136-0.895-0.189-1.328-0.189c-2.764,0-4.553,2.276-4.553,5.8
			c0,3.225,1.979,5.799,4.472,5.799c0.46,0,0.786-0.055,1.409-0.271v3.415c-0.678,0.244-1.03,0.298-1.626,0.298
			c-4.58,0-8.021-3.983-8.021-9.24c0-5.122,3.414-9.215,7.669-9.215c0.812,0,1.192,0.055,1.979,0.326V203.888z"/>
		<path fill="#838382" d="M223.616,200.474v8.075l3.008-8.075h3.659l-3.334,8.347l3.74,9.729h-3.74l-3.333-9.187v9.187h-3.577
			v-18.075H223.616z"/>
		<path fill="#838382" d="M239.334,200.474l4.309,18.075h-3.794l-0.65-3.035h-3.632l-0.623,3.035h-3.577l4.2-18.075H239.334z
			 M238.061,209.904c-0.353-1.653-0.543-2.927-0.732-4.77c-0.135,1.788-0.379,3.686-0.678,5.095l-0.515,2.493h2.521L238.061,209.904
			z"/>
		<path fill="#838382" d="M248.979,200.474v11.978c0,2.412,0.434,3.171,1.762,3.171c1.463,0,1.788-0.597,1.788-3.171v-11.978h3.577
			v13.468c0,3.307-1.734,4.905-5.365,4.905c-2.684,0-4.444-1.057-5.068-2.98c-0.243-0.731-0.271-0.976-0.271-2.439v-12.953H248.979z
			"/>
		<path fill="#838382" d="M266.512,200.474v3.333h-3.604v3.93h3.171v3.414h-3.171v4.065h3.658v3.333h-7.235v-18.075H266.512z"/>
		<path fill="#838382" d="M273.233,200.474c1.87,0,3.035,0.243,3.93,0.84c1.355,0.895,2.141,2.548,2.141,4.525
			c0,1.979-0.84,3.415-2.574,4.472l3.144,8.238h-3.767l-3.171-8.347v8.347h-3.577v-18.075H273.233z M272.935,208.224
			c0.217,0.027,0.461,0.055,0.542,0.055c1.49,0,2.357-0.922,2.357-2.439c0-1.22-0.406-2.06-1.138-2.385
			c-0.353-0.136-0.569-0.162-1.762-0.162V208.224z"/>
	</g>
</g>
<g>
	<g>
		<path fill="#838382" d="M176.629,229.856c-1.029-0.812-1.734-1.138-2.602-1.138c-1.084,0-1.788,0.704-1.788,1.762
			c0,0.975,0.46,1.625,1.924,2.736c1.843,1.383,2.331,1.816,2.791,2.574c0.488,0.813,0.731,1.734,0.731,2.792
			c0,3.278-2.086,5.582-5.04,5.582c-1.301,0-2.276-0.271-3.225-0.921v-3.415c1.057,0.731,1.761,0.976,2.71,0.976
			c1.192,0,2.06-0.812,2.06-1.951c0-1.084-0.217-1.328-2.114-2.655c-2.466-1.681-3.333-3.062-3.333-5.366
			c0-3.17,1.924-5.338,4.742-5.338c1.139,0,2.006,0.243,3.144,0.894V229.856z"/>
		<path fill="#838382" d="M190.829,228.041c1.138,1.572,1.653,3.74,1.653,6.775c0,3.062-0.516,5.203-1.653,6.802
			c-1.058,1.544-2.927,2.547-4.688,2.547c-1.789,0-3.658-1.003-4.715-2.547c-1.139-1.599-1.653-3.74-1.653-6.802
			c0-3.035,0.515-5.177,1.653-6.775c1.057-1.545,2.926-2.547,4.715-2.547S189.745,226.469,190.829,228.041z M183.594,234.734
			c0,3.849,0.921,5.989,2.547,5.989c1.599,0,2.521-2.141,2.521-5.962c0-3.848-0.922-5.989-2.521-5.989
			C184.515,228.772,183.594,230.914,183.594,234.734z"/>
		<path fill="#838382" d="M198.661,225.792l4.417,10.921c-0.162-0.895-0.271-1.762-0.271-2.493v-8.428h3.659v18.075h-3.388
			l-4.417-10.895c0.108,0.678,0.189,1.816,0.189,2.331v8.563h-3.577v-18.075H198.661z"/>
		<path fill="#838382" d="M212.698,225.792c2.656,0,4.146,0.515,5.501,1.978c1.518,1.572,2.304,4.038,2.304,7.154
			c0,5.827-2.574,8.943-7.316,8.943h-3.496v-18.075H212.698z M213.268,240.561c2.304-0.026,3.631-2.059,3.631-5.609
			c0-3.686-1.301-5.854-3.631-5.988V240.561z"/>
		<path fill="#838382" d="M230.503,225.792v3.333h-3.604v3.93h3.171v3.414h-3.171v4.065h3.658v3.333h-7.235v-18.075H230.503z"/>
		<path fill="#838382" d="M237.223,225.792c1.87,0,3.035,0.243,3.93,0.84c1.355,0.895,2.141,2.548,2.141,4.525
			c0,1.979-0.84,3.415-2.574,4.472l3.144,8.238h-3.767l-3.171-8.347v8.347h-3.577v-18.075H237.223z M236.925,233.542
			c0.217,0.027,0.461,0.055,0.542,0.055c1.49,0,2.357-0.922,2.357-2.439c0-1.22-0.406-2.06-1.138-2.385
			c-0.353-0.136-0.569-0.162-1.762-0.162V233.542z"/>
		<path fill="#838382" d="M254.025,229.856c-1.029-0.812-1.734-1.138-2.602-1.138c-1.084,0-1.788,0.704-1.788,1.762
			c0,0.975,0.461,1.625,1.924,2.736c1.843,1.383,2.33,1.816,2.791,2.574c0.488,0.813,0.732,1.734,0.732,2.792
			c0,3.278-2.087,5.582-5.041,5.582c-1.301,0-2.276-0.271-3.225-0.921v-3.415c1.057,0.731,1.762,0.976,2.71,0.976
			c1.192,0,2.06-0.812,2.06-1.951c0-1.084-0.217-1.328-2.114-2.655c-2.466-1.681-3.333-3.062-3.333-5.366
			c0-3.17,1.924-5.338,4.742-5.338c1.139,0,2.006,0.243,3.144,0.894V229.856z"/>
		<path fill="#838382" d="M265.485,225.792v3.306h-2.818v14.77h-3.577v-14.77h-2.791v-3.306H265.485z"/>
		<path fill="#838382" d="M273.563,225.792l4.309,18.075h-3.794l-0.65-3.035h-3.632l-0.623,3.035h-3.577l4.2-18.075H273.563z
			 M272.289,235.223c-0.353-1.653-0.543-2.927-0.732-4.77c-0.135,1.788-0.379,3.686-0.678,5.095l-0.515,2.493h2.521L272.289,235.223
			z"/>
		<path fill="#838382" d="M283.372,225.792v7.073h3.604v-7.073h3.577v18.075h-3.577v-7.615h-3.604v7.615h-3.577v-18.075H283.372z"/>
		<path fill="#838382" d="M297.356,225.792v14.688h3.74v3.388h-7.317v-18.075H297.356z"/>
		<path fill="#838382" d="M306.922,225.792c1.273,0,2.06,0.162,2.818,0.542c1.49,0.812,2.466,2.602,2.466,4.525
			c0,1.68-0.515,2.683-1.924,3.74c1.437,0.812,2.222,2.303,2.222,4.173c0,3.116-2.168,5.095-5.609,5.095h-3.794v-18.075H306.922z
			 M306.678,233.217c1.437-0.108,2.141-0.867,2.141-2.276c0-1.437-0.731-2.194-2.141-2.194V233.217z M306.678,240.777
			c1.49-0.026,2.304-0.867,2.304-2.411c0-1.491-0.813-2.331-2.304-2.385V240.777z"/>
		<path fill="#838382" d="M321.908,225.792l4.309,18.075h-3.794l-0.65-3.035h-3.632l-0.623,3.035h-3.577l4.2-18.075H321.908z
			 M320.635,235.223c-0.353-1.653-0.543-2.927-0.732-4.77c-0.135,1.788-0.379,3.686-0.678,5.095l-0.515,2.493h2.521L320.635,235.223
			z"/>
		<path fill="#838382" d="M331.553,225.792v11.978c0,2.412,0.434,3.171,1.762,3.171c1.463,0,1.788-0.597,1.788-3.171v-11.978h3.577
			v13.468c0,3.307-1.734,4.905-5.365,4.905c-2.684,0-4.444-1.057-5.068-2.98c-0.243-0.731-0.271-0.976-0.271-2.439v-12.953H331.553z
			"/>
	</g>
</g>
</svg>
