# This file uses centimeters as units for non-parametric coordinates.

mtllib Building-Materials_Other_Finja-Betong-AB_Prefabricated-element-of-foundation-Gara.mtl


g default

# VertexData Begin
# Vertices (Number of Vertices = 63)
v 0.0001209434 -0.0007233318 -1.796049e-17
v 0.0001209434 -0.0007233318 400
v 0.0001209434 1199.999 -6.996201e-14
v 0.0001209434 1199.999 400
v 10.00012 -0.0007233318 -1.796049e-17
v 10.00012 -0.0007233318 400
v 10.00012 1199.999 -6.996201e-14
v 10.00012 1199.999 -5.636178e-14
v 10.00012 1199.999 400
v 35.00012 -0.0007233318 400
v 35.00012 1199.999 400
v 60.00012 -0.0007233318 100
v 60.00012 -0.0007233318 350
v 60.00012 89.99928 190
v 60.00012 89.99928 350
v 60.00012 209.9993 190
v 60.00012 209.9993 350
v 60.00012 539.9993 190
v 60.00012 539.9993 350
v 60.00012 659.9993 190
v 60.00012 659.9993 350
v 60.00012 989.9993 190
v 60.00012 989.9993 350
v 60.00012 1109.999 190
v 60.00012 1109.999 350
v 60.00012 1199.999 100
v 60.00012 1199.999 350
v 120.0001 89.99928 190
v 120.0001 89.99928 250
v 120.0001 209.9993 190
v 120.0001 209.9993 250
v 120.0001 539.9993 190
v 120.0001 539.9993 250
v 120.0001 659.9993 190
v 120.0001 659.9993 250
v 120.0001 989.9993 190
v 120.0001 989.9993 250
v 120.0001 1109.999 190
v 120.0001 1109.999 250
v 172.0001 -0.0007233318 250
v 172.0001 -0.0007233318 400
v 172.0001 89.99928 250
v 172.0001 89.99928 350
v 172.0001 209.9993 250
v 172.0001 209.9993 350
v 172.0001 539.9993 250
v 172.0001 539.9993 350
v 172.0001 659.9993 250
v 172.0001 659.9993 350
v 172.0001 989.9993 250
v 172.0001 989.9993 350
v 172.0001 1109.999 250
v 172.0001 1109.999 350
v 172.0001 1199.999 250
v 172.0001 1199.999 400
v 180.0001 -0.0007233318 250
v 180.0001 -0.0007233318 400
v 180.0001 1199.999 250
v 180.0001 1199.999 400
v 543 -0.0007233318 -1.796049e-17
v 543 -0.0007233318 100
v 543 1199.999 -5.636178e-14
v 543 1199.999 100

# Vertex normals (Number of vertex normals = 7)
vn -1 0 0
vn 0 -1 0
vn 6.063298e-14 0 -1
vn 0 0 1
vn 0 1 0
vn 0.8944272 2.118429e-17 0.4472136
vn 1 0 0

# VertexData End
# Elements Begin

# Faces (Number of Faces = 108)

usemtl e5093f3d_635b_403e_adad_ef13bf026157
f 38//3 36//3 22//3
f 22//3 24//3 38//3
f 39//7 37//7 36//7
f 36//7 38//7 39//7
f 52//3 50//3 37//3
f 37//3 39//3 52//3
f 53//7 51//7 50//7
f 50//7 52//7 53//7
f 25//4 23//4 51//4
f 51//4 53//4 25//4
f 24//1 22//1 23//1
f 23//1 25//1 24//1
f 51//2 23//2 37//2
f 22//2 37//2 23//2
f 50//2 51//2 37//2
f 22//2 36//2 37//2
f 38//5 24//5 39//5
f 25//5 39//5 24//5
f 52//5 39//5 53//5
f 25//5 53//5 39//5

usemtl 5297e57b_732c_43a3_a087_524aef4f8dc6
f 6//7 5//7 7//7
f 7//7 9//7 6//7
f 4//4 2//4 6//4
f 6//4 9//4 4//4
f 4//1 3//1 1//1
f 1//1 2//1 4//1
f 7//3 5//3 1//3
f 1//3 3//3 7//3
f 5//2 6//2 2//2
f 2//2 1//2 5//2
f 7//5 3//5 4//5
f 4//5 9//5 7//5
f 57//7 56//7 58//7
f 58//7 59//7 57//7
f 55//4 41//4 57//4
f 57//4 59//4 55//4
f 55//1 54//1 40//1
f 40//1 41//1 55//1
f 58//3 56//3 40//3
f 40//3 54//3 58//3
f 56//2 57//2 41//2
f 41//2 40//2 56//2
f 58//5 54//5 55//5
f 55//5 59//5 58//5

usemtl e5093f3d_635b_403e_adad_ef13bf026157
f 34//3 32//3 18//3
f 18//3 20//3 34//3
f 35//7 33//7 32//7
f 32//7 34//7 35//7
f 48//3 46//3 33//3
f 33//3 35//3 48//3
f 49//7 47//7 46//7
f 46//7 48//7 49//7
f 21//4 19//4 47//4
f 47//4 49//4 21//4
f 20//1 18//1 19//1
f 19//1 21//1 20//1
f 47//2 19//2 33//2
f 18//2 33//2 19//2
f 46//2 47//2 33//2
f 18//2 32//2 33//2
f 34//5 20//5 35//5
f 21//5 35//5 20//5
f 48//5 35//5 49//5
f 21//5 49//5 35//5
f 30//3 28//3 14//3
f 14//3 16//3 30//3
f 31//7 29//7 28//7
f 28//7 30//7 31//7
f 44//3 42//3 29//3
f 29//3 31//3 44//3
f 45//7 43//7 42//7
f 42//7 44//7 45//7
f 17//4 15//4 43//4
f 43//4 45//4 17//4
f 16//1 14//1 15//1
f 15//1 17//1 16//1
f 43//2 15//2 29//2
f 14//2 29//2 15//2
f 42//2 43//2 29//2
f 14//2 28//2 29//2
f 30//5 16//5 31//5
f 17//5 31//5 16//5
f 44//5 31//5 45//5
f 17//5 45//5 31//5
f 62//3 60//3 5//3
f 5//3 8//3 62//3
f 61//7 60//7 62//7
f 62//7 63//7 61//7
f 26//4 12//4 61//4
f 61//4 63//4 26//4
f 13//7 12//7 26//7
f 26//7 27//7 13//7
f 10//6 13//6 27//6
f 27//6 11//6 10//6
f 9//4 6//4 10//4
f 10//4 11//4 9//4
f 9//1 8//1 5//1
f 5//1 6//1 9//1
f 60//2 61//2 12//2
f 12//2 5//2 60//2
f 5//2 12//2 13//2
f 13//2 6//2 5//2
f 13//2 10//2 6//2
f 62//5 8//5 26//5
f 26//5 63//5 62//5
f 8//5 9//5 27//5
f 27//5 26//5 8//5
f 27//5 9//5 11//5

# Elements End

# endsolid Building-Materials_Other_Finja-Betong-AB_Prefabricated-element-of-foundation-Gara
