# This file uses centimeters as units for non-parametric coordinates.

mtllib Building-Materials_Bricks-Blocks_Lithonplus_L-Tec-System-corner-90-length-99-cm-surf.mtl


g default

# VertexData Begin
# Vertices (Number of Vertices = 17)
v 0 0 0
v 0 0 550
v 0 990 0
v 0 990 550
v 120 120 0
v 120 120 120
v 120 120 550
v 120 990 0
v 120 990 120
v 120 990 550
v 990 0 0
v 990 0 550
v 990 120 0
v 990 120 120
v 990 120 550
v 990 990 0
v 990 990 120

# Vertex normals (Number of vertex normals = 6)
vn -1 0 0
vn 0 -1 0
vn 0 0 -1
vn 0 0 1
vn 0 1 0
vn 1 0 0

# VertexData End
# Elements Begin

# Faces (Number of Faces = 32)

usemtl 520425d6_5eae_44b6_bd28_cf7ba6e04afc
f 5//2 13//2 14//2 
f 14//2 6//2 5//2 
f 13//6 16//6 17//6 
f 17//6 14//6 13//6 
f 16//5 8//5 9//5 
f 9//5 17//5 16//5 
f 8//1 5//1 6//1 
f 6//1 9//1 8//1 
f 13//3 5//3 8//3 
f 8//3 16//3 13//3 
f 14//4 9//4 6//4 
f 9//4 14//4 17//4 
f 1//2 11//2 12//2 
f 12//2 2//2 1//2 
f 11//6 13//6 15//6 
f 15//6 12//6 11//6 
f 13//5 5//5 7//5 
f 7//5 15//5 13//5 
f 5//6 8//6 10//6 
f 10//6 7//6 5//6 
f 8//5 3//5 4//5 
f 4//5 10//5 8//5 
f 3//1 1//1 2//1 
f 2//1 4//1 3//1 
f 3//3 5//3 1//3 
f 11//3 1//3 5//3 
f 8//3 5//3 3//3 
f 11//3 5//3 13//3 
f 4//4 2//4 7//4 
f 12//4 7//4 2//4 
f 10//4 4//4 7//4 
f 12//4 15//4 7//4 

# Elements End

# endsolid Building-Materials_Bricks-Blocks_Lithonplus_L-Tec-System-corner-90-length-99-cm-surf
